<?xml version="1.0" encoding="UTF-8"?>
<svg id="Layer_1" data-name="Layer 1" xmlns="http://www.w3.org/2000/svg" viewBox="0 0 2560 1440">
  <rect width="2560" height="1440" fill="none"/>
  <g>
    <g>
      <path d="M960.68,811.2h0c-2.33,2.16-4.37,5.38-6.04,10-1.97,16.61,14.13,19.23,18.39,14.51l6.36-14.48c3.32-10.16-10.99-18.77-18.71-10.02Z" fill="#46121f"/>
      <path d="M998.69,798.49l-.42,1.13c-.34.92.34,1.89,1.32,1.89h16.21s-12.46-10.36-12.46-10.36c-.79-.66-2-.3-2.3.69-.68,2.21-1.4,4.4-2.35,6.64Z" fill="#46121f"/>
      <path d="M1002.88,787.44l17.01,13.88c.16.13.36.2.57.2h2.23s-18.03-17.43-18.03-17.43c-.49-.47-1.3-.26-1.49.4l-.59,2c-.1.35.01.72.3.95Z" fill="#46121f"/>
      <path d="M1034.1,801.52c.07-.13.14-.25.21-.38,1.54-2.92,1.4-6.44-.22-9.32-5.6-9.94-11.34-19.6-17.9-28.69-4.59,6.08-8.95,11.69-11.34,16l21.4,22.39h7.85Z" fill="#46121f"/>
      <path d="M949.38,777.82c2.48,1.07,5.83,3.02,9.64,5.28.62.37,1.42.11,1.7-.55l1.02-2.37c.23-.52.05-1.13-.42-1.46-2.89-1.98-6.12-3.91-9.76-5.76-.77-.39-1.7.04-1.93.87s-.52,1.65-.86,2.42c-.27.6.01,1.3.62,1.56Z" fill="#46121f"/>
      <path d="M977.26,744.74c-1.29,1.2-2.73,2.29-4.35,3.26-.62.37-.72,1.23-.22,1.74l2.73,2.83c.61.63,1.66.36,1.91-.47.7-2.29,1.04-4.56,1.13-6.81.02-.63-.73-.98-1.2-.55Z" fill="#46121f"/>
      <path d="M956.84,754.79c-1.14.29-2.67.45-4.58.48s-3.36,1.95-2.76,3.82.92,3.87,1.03,6.18c.07,1.52.88,2.9,2.18,3.69l7.76,4.69c1.77,1.07,4.07.42,5.02-1.41,2.31-4.47,4.8-8.64,7.7-12.54,1.01-1.35.97-3.21-.1-4.51l-2.11-2.56c-1.16-1.41-3.1-1.87-4.77-1.14-3.11,1.35-6.23,2.49-9.37,3.31Z" fill="#46121f"/>
      <path d="M1070.78,649.63l4.7-1.5c.28-.38.46-.96.56-1.7.14-1.08.03-2.18-.26-3.23-4.57-16.43-20.84-32.45-48.89-40.8-1.84-.55-3.84.05-5.07,1.52l-5.51,6.54c-1.06,1.26-.37,3.19,1.26,3.5,15.99,3.05,43.29,16.32,50.36,34.33.44,1.13,1.7,1.72,2.86,1.35Z" fill="#46121f"/>
      <path d="M944.27,779.62c2.4-6.16,3.22-14.34-.8-24.87-8.91-.77-18.4-2.01-28.33-3.61-.69-.11-1.27.52-1.11,1.19l4.84,19.8c-4.16,7.09-3.2,14.18,3.72,19.87,3.49,3.25,7.25,6.44,11.26,9.55l19.12.15,5.17-13.14c.32-.81.04-1.73-.67-2.22-2.87-1.99-5.94-3.69-9.27-5.06-.75-.31-1.62-.02-2.03.69-1.98,3.4-4.06,6.08-6.4,6.88,3.73-4.27,4.51-9.23,4.51-9.23Z" fill="#46121f"/>
      <g>
        <path d="M1014.66,823.39c2.29,0,4.15-1.84,4.2-4.12.04-2.35-1.95-4.28-4.31-4.28h-23.6s-4.85,8.4-4.85,8.4h28.56Z" fill="#46121f"/>
        <path d="M929.45,819.26c-.04,2.35,1.95,4.28,4.31,4.28h14.95s0,0,.01-.02c-.27-.91-.21-4.07.47-8.38h-15.54c-2.29,0-4.15,1.84-4.2,4.12Z" fill="#46121f"/>
        <path d="M1112.67,816.19c-11.89-6.35-23.21-9.65-34.07-10.4l-82.86-.08-3.01,5.71h56.07c2.05,0,3.7,1.66,3.7,3.7v8.29c0,2.05-1.66,3.7-3.7,3.7h-65.12l-3.32,5.75,100.66.09c7.61-.25,22.25-5.02,31.79-10.05,1.44-.7,2.71-1.41,3.31-2.16.51-1.88-.31-2.95-3.45-4.56ZM1067.7,823.74c-2.83.28-5.2-2.08-4.92-4.92.21-2.1,1.9-3.79,4-4,2.83-.28,5.2,2.08,4.92,4.92-.21,2.1-1.9,3.79-4,4Z" fill="#46121f"/>
        <path d="M899.35,827.13c-2.05,0-3.7-1.66-3.7-3.7v-8.29c0-2.05,1.66-3.7,3.7-3.7h50.75c.39-1.82.87-3.76,1.47-5.75l-83.92-.08c-7.29.81-14.19,2.72-21.56,5.82-6.02,2.52-10.67,4.48-13.91,6.68-.37,1.02-.38,2.05.05,3.08l4.58,2.37c12.32,5.58,21.99,8.57,31.72,9.24l84.83.07c-1.41-2.38-2.54-4.15-3.31-5.72h-50.7ZM882.31,823.74c-2.83.28-5.2-2.08-4.92-4.92.21-2.1,1.9-3.79,4-4,2.83-.28,5.2,2.08,4.92,4.92-.21,2.1-1.9,3.79-4,4Z" fill="#46121f"/>
      </g>
      <path d="M976.01,833.66l4.76-10.28c7.07-15.8-13.73-23.95-21.51-13.93,0,0-5.14,4.78-6.33,11.25-.09.48-.69,3.12-.67,2.63l-.47-3.68c.42-5.32,7.54-25.86,12.2-37.08.81-1.94,1.71-3.83,2.71-5.68.37-.69.68-1.26.68-1.26.36-.61.74-1.22,1.12-1.84,2.83-4.56,5.99-8.91,9.4-13.05.32-.39.53-.64.53-.64,5.69-8.4,2.36-10.96,2.9-23.04.66-13.93,5.97-17.34,14.45-26.75-14.74,7.61-17.72,13.27-18.92,21.44-1.27,8.62-7.51,15.7-15.95,17.85-11.76,3-26.01,1.62-39.77-.43-1.8-.64-2.59-2.69-1.3-4.11,3.36-3.7,5.18-8.98,5.49-13,5.09,2.13,12.58,1.69,19.04-3.29,1.49-1.15,3.49-1.39,5.23-.69,7.86,3.16,12.72,4.33,17.39,3.22.07-.02.06-.11,0-.12-5-.59-10.44-2.33-16.55-5.81-2.08-1.19-5.46-1.92-6.96-.34-.79.83-1.63,1.61-2.62,2.18-6.58,3.83-15.46,3.29-19.19.44,0,0,1.77,2.61.4,7.51-1.64,5.85-6.5,10.23-12.45,11.47-1.82.38-3.21.58-3.21.58.98-4.73.32-10.93-1.03-14.45-.07,6.23-2.14,17.47-5.48,19.63-9.5,6.15-22.56,13.62-29.9,17.01-2.29,1.06-5.03.34-6.48-1.73-4.06-5.77-8.46-8.2-13.21-7.27,2.71,1.67,5.4,3.65,7.63,5.91,3.33,3.38,4.01,8.59,1.65,12.71-.03.04-.05.09-.08.13-1.53,2.64-3.45,5.03-5.64,7.15-5.3,5.1-11.21,9.97-13.28,10.79-8.01,3.18-15.86-6.27-24.33,2.13,3.57-.5,8.86-.73,12.91.15,1.99.43,2.96,2.7,1.9,4.44-2.87,4.66-8.37,13.31-11.18,15.69-4.93,4.17-16.39,10.23-21.34,3.46-2.94-4.02-.39-4.52,1.6-7.36,3.67-5.22,7.32-9.85,10.88-15.12,3.76-5.58,7.99-12.36,12.12-17.53,3.48-4.36,7.86-7.87,11.57-11.99,7.2-7.99,16.47-23.64,24.62-29.52,7.54-5.45,32.33-15.74,37.62-22.6,9.25-11.98,12.98-23.45,34.1-31.91,33.59-14.74,70.83-57.39,79.36-67.84,1.17-1.43,3.04-2.08,4.84-1.67,23.97,3.83,42.17,24.59,47.91,31.88,1.22,1.56,1.45,3.68.57,5.45-2.19,4.4-5.22,8.91-9.17,13.54,0,0-3.08-11.48-6.02-15.98,1.83,8.8,2.98,17.1,3.1,24.65,0,0,0-.01,0,0,2.17,60-35.83,67.98-49.15,100.85-3.1,8.09-9.5,26.22-13.39,33.96-4.98,9.91-10.73,20.39-13.07,21.85Z" fill="#46121f"/>
    </g>
    <g>
      <path d="M1154.5,758.08c0,9.59-3.63,16.94-10.88,22.04-6.23,4.42-14,6.63-23.31,6.63-6.11,0-11.77-1.49-16.97-4.48-6.28-3.55-9.43-8.38-9.43-14.48,0-1.31.17-2.3.51-2.99h9.43c-.06.25-.09.62-.09,1.12,0,2.99,2.4,5.54,7.2,7.66,3.88,1.74,7.51,2.62,10.88,2.62,5.37,0,10.14-1.09,14.31-3.27,5.2-2.8,7.8-6.88,7.8-12.24,0-1.5-.34-2.96-1.03-4.39-.86-1.74-1.94-2.62-3.26-2.62s-2.11.9-2.4,2.71c-.06.12-.09,1.53-.09,4.2h-10.88v-21.11c0-2.62-1.14-3.92-3.43-3.92s-3.26,1.21-3.26,3.64v21.39h-10.8v-22.04c0-2.68-1.06-4.02-3.17-4.02s-3.08,1.34-3.08,4.02v10.46c0,3.12-1.49,6.01-4.46,8.69-2.86,2.55-6.26,3.83-10.2,3.83-3.31,0-6.2-1.03-8.65-3.08-2.8-2.3-4.2-5.14-4.2-8.5v-25.41h10.71v19.05c0,.5.09,1.03.26,1.59.17.56.41,1.09.73,1.59.31.5.66.92,1.03,1.26.37.34.78.51,1.24.51.86,0,1.54-.53,2.06-1.59.4-.81.6-1.74.6-2.8v-10.09c0-3.18,1.48-5.82,4.46-7.94,2.46-1.87,5.11-2.8,7.97-2.8,4.11,0,7.57,1.37,10.37,4.11l1.29-1.31c-1.77-4.23-2.66-7.72-2.66-10.46,0-5.36,1.66-9.84,4.97-13.45,3.37-3.67,7.48-5.51,12.34-5.51,3.54,0,6.65,1.12,9.34,3.36,2.8,2.43,4.2,5.57,4.2,9.43,0,3.61-1.31,6.57-3.94,8.87-2.57,2.24-5.54,3.36-8.91,3.36-2.74,0-5-.87-6.77-2.62-.06.12-.09.31-.09.56,0,.69.2,1.4.6,2.15.4.75.88,1.21,1.46,1.4.17.06.39.09.64.09s.56.03.9.09c2.11.5,4.06,1.56,5.83,3.18,2.23,2.18,3.34,4.52,3.34,7.01v9.25c1.77-1.18,3.63-1.77,5.57-1.77,3.48,0,6.4,1.96,8.74,5.88,2.11,3.43,3.17,7.13,3.17,11.12ZM1133.59,708.76c0-1.93-.91-2.9-2.74-2.9s-2.83.97-2.83,2.9c0,2.12.94,3.18,2.83,3.18s2.74-1.06,2.74-3.18Z" fill="#003d31"/>
      <path d="M1219.02,735.76v32.23h-10.88v-33.07c0-3.18-1.09-5.6-3.26-7.29-1.89-1.49-4.34-2.24-7.37-2.24-4,0-7.11,1.5-9.34,4.48-2,2.74-3,6.32-3,10.74,0,3.42.71,6.13,2.14,8.13,1.6,2.3,3.91,3.46,6.94,3.46,1.48,0,2.88-.62,4.2-1.87v13.26c-2.86.87-5.28,1.31-7.28,1.31-5.08,0-9.25-2.3-12.51-6.91-2.97-4.17-4.46-9.15-4.46-14.95,0-8.59,2.08-15.54,6.26-20.83,4.34-5.67,10.42-8.5,18.25-8.5,6.4,0,11.38,1.93,14.95,5.79,3.57,3.86,5.36,9.28,5.36,16.25Z" fill="#003d31"/>
      <path d="M1273.35,735.57c0,5.67-2.06,10.09-6.17,13.26-3.66,2.87-8.2,4.3-13.62,4.3-.57,0-1.29-.01-2.14-.05-.86-.03-1.86-.11-3-.23-1.14-.12-2.13-.22-2.96-.28-.83-.06-1.53-.09-2.1-.09-5.31,0-7.97,1.71-7.97,5.14,0,2.55,1.46,3.83,4.37,3.83,2.28,0,5.23-1.37,8.83-4.11,3.66-2.8,7.37-4.2,11.14-4.2,4,0,7.23,1.26,9.68,3.78,2.46,2.52,3.68,5.93,3.68,10.23,0,1.62-.2,3.18-.6,4.67h-11.74c.74-1.62,1.11-3.08,1.11-4.39,0-2.12-1.03-3.18-3.08-3.18-.34,0-1.57.65-3.69,1.96-1.31.81-2.57,1.51-3.77,2.1-1.2.59-2.29,1.11-3.26,1.54-3.2,1.31-6.11,1.96-8.74,1.96-10.68,0-16.02-4.55-16.02-13.64,0-5.29,1.51-9.31,4.54-12.05,2.86-2.55,6.71-3.83,11.57-3.83,1.26,0,3.17.09,5.74.28,1.31.06,2.44.11,3.38.14.94.03,1.73.05,2.36.05,7.88,0,11.83-1.78,11.83-5.33,0-1.24-.39-2.35-1.16-3.32-.77-.96-1.7-1.45-2.78-1.45-1.37,0-2.46.55-3.26,1.63-.8,1.09-1.09,2.38-.86,3.88h-12c.06-.31.1-.62.13-.93.03-.31.04-.62.04-.93,0-2.74-1.17-4.11-3.51-4.11-.97,0-1.83.37-2.57,1.12-.74.75-1.11,1.65-1.11,2.71,0,1.68.6,2.93,1.8,3.74h-12.94c-.23-1.06-.34-2.27-.34-3.64,0-4.36,1.4-7.97,4.2-10.83,2.8-2.86,6.23-4.3,10.28-4.3,2.4,0,4.34.37,5.83,1.12,1.31.69,2.86,2.02,4.63,4.02,2.63-3.24,6.31-4.86,11.05-4.86,3.71,0,6.83,1.37,9.34,4.11,2.57,2.74,3.86,6.13,3.86,10.18Z" fill="#003d31"/>
      <path d="M1321.72,724.74v35.87h-30.42v-3.83c-.97.81-1.8,1.45-2.48,1.92s-1.2.79-1.54.98c-.74.44-1.5.73-2.27.89-.77.16-1.58.23-2.44.23-1.83,0-3.29-.9-4.37-2.71-.91-1.56-1.37-3.42-1.37-5.6v-27.74h9.77v21.76c0,1.43.8,2.15,2.4,2.15,1.43,0,2.14-.72,2.14-2.15v-21.76h10.8v24.1h9.42v-24.1h10.37ZM1314.26,712.03c0,1.31-.23,2.55-.69,3.74-.46,1.18-1.09,2.21-1.89,3.08-.8.87-1.74,1.56-2.83,2.05-1.09.5-2.23.75-3.43.75s-2.33-.25-3.38-.75c-1.06-.5-2-1.2-2.83-2.1-.83-.9-1.47-1.93-1.93-3.08-.46-1.15-.69-2.38-.69-3.69s.23-2.55.69-3.74c.46-1.18,1.08-2.21,1.89-3.08.8-.87,1.74-1.56,2.83-2.06,1.08-.5,2.23-.75,3.43-.75s2.34.25,3.43.75c1.08.5,2.03,1.18,2.83,2.06.8.87,1.43,1.9,1.89,3.08.46,1.18.69,2.43.69,3.74Z" fill="#003d31"/>
      <path d="M1375.06,724.64v35.78h-9.94v-34.38c0-1.12-.19-2.21-.56-3.27-.37-1.06-.89-1.99-1.54-2.8-.66-.81-1.43-1.45-2.31-1.92-.89-.47-1.84-.7-2.87-.7-1.88,0-3.56.72-5.01,2.15-1.46,1.43-2.33,3.18-2.61,5.23h8.57v21.86c0,4.67-2,8.31-6,10.93-3.31,2.12-7.31,3.18-12,3.18-3.89,0-7.2-1.12-9.94-3.36-3.03-2.55-4.54-5.82-4.54-9.81v-22.79h10.62v19.52c0,3.36,1.8,5.04,5.4,5.04,1.37,0,2.63-.54,3.77-1.63,1.14-1.09,1.71-2.38,1.71-3.88v-15.79h-8.65v-1.31c0-2.8.4-5.37,1.2-7.71.8-2.33,2.08-4.47,3.86-6.4,3.66-3.86,8.05-5.79,13.2-5.79s9.05,1.59,12.42,4.76c3.48,3.36,5.23,7.72,5.23,13.08Z" fill="#003d31"/>
      <path d="M1427.29,724.18v36.52h-9.94v-34.09c0-2.24-.68-4.12-2.06-5.65-1.37-1.53-3.08-2.29-5.14-2.29-1.71,0-3.21.61-4.5,1.82-1.29,1.21-2.16,2.73-2.61,4.53,6.28,2.55,9.43,7.44,9.43,14.67v21.02h-10.97v-19.9c0-3.86-1.77-5.79-5.31-5.79-1.49,0-2.79.5-3.9,1.49-1.11,1-1.67,2.27-1.67,3.83v20.36h-11.4v-17.84c0-4.48,1.14-8.41,3.43-11.77,2.28-3.36,5.4-5.63,9.34-6.82,1.2-5.05,3.36-8.97,6.47-11.77,3.11-2.8,7.07-4.2,11.87-4.2,4.34,0,8.17,1.43,11.48,4.3,3.66,3.05,5.48,6.91,5.48,11.58Z" fill="#003d31"/>
      <path d="M1477.73,724.74v35.87h-30.42v-3.83c-.97.81-1.8,1.45-2.48,1.92s-1.2.79-1.54.98c-.74.44-1.5.73-2.27.89-.77.16-1.58.23-2.44.23-1.83,0-3.29-.9-4.37-2.71-.91-1.56-1.37-3.42-1.37-5.6v-27.74h9.77v21.76c0,1.43.8,2.15,2.4,2.15,1.43,0,2.14-.72,2.14-2.15v-21.76h10.8v24.1h9.43v-24.1h10.37Z" fill="#003d31"/>
      <path d="M1517.23,739.87v20.74h-11.14v-19.99c0-3.86-1.8-5.79-5.4-5.79-1.43,0-2.73.51-3.9,1.54-1.17,1.03-1.76,2.29-1.76,3.78v20.46h-11.31v-17.84c0-5.67,1.63-10.24,4.88-13.73,3.31-3.49,7.57-5.23,12.77-5.23,4.8,0,8.64,1.4,11.53,4.2,2.88,2.8,4.33,6.76,4.33,11.86Z" fill="#003d31"/>
      <path d="M1582.01,712.31v13.45h-9.6v-9.72c0-2.55-1.23-3.83-3.68-3.83s-3.6,1.21-3.6,3.64c0,.31.4.81,1.2,1.49.29.25.54.45.77.61.23.16.4.3.51.42.17.19.31.31.43.37,1.43,1.62,2.37,3.77,2.83,6.45.23,1.25.34,3.64.34,7.19h10.71v10.93h-10.8v1.03c0,4.92-1.54,8.87-4.63,11.86-3.08,2.93-6.97,4.39-11.65,4.39-2.23,0-4.27-.26-6.13-.79-1.86-.53-3.53-1.38-5.01-2.57-3.37-2.74-5.06-6.41-5.06-11.02,0-2.86.66-5.46,1.97-7.8,1.31-2.33,3.17-3.94,5.57-4.81v-7.38c.17-2.8.94-5.04,2.31-6.73,1.54-1.93,3.48-3.14,5.83-3.64.11-4.48,1.54-8.19,4.29-11.12,2.8-2.99,6.25-4.48,10.37-4.48,3.48,0,6.48,1.03,9,3.08,2.68,2.24,4.03,5.23,4.03,8.97ZM1559.9,743.33h-7.8c-1.31,0-1.97.72-1.97,2.15,0,1.31.44,2.37,1.33,3.18.88.81,1.93,1.21,3.13,1.21,1.54,0,2.83-.48,3.86-1.45,1.03-.96,1.54-2.29,1.54-3.97,0-.5-.03-.87-.09-1.12ZM1556.73,732.4h3.17v-4.48c0-.93-.54-1.4-1.63-1.4-.34,0-.69.22-1.03.65-.34.44-.51.84-.51,1.21v4.02Z" fill="#003d31"/>
      <path d="M1632.42,742.49c0,4.8-1.51,9.03-4.54,12.7-2.97,3.61-6.66,5.42-11.05,5.42-3.43,0-6.4-1.15-8.91-3.46-2.57-2.3-3.86-6.54-3.86-12.7v-2.43c0-2.43-.17-4.11-.51-5.04-.57-1.37-1.63-2.05-3.17-2.05-1.77,0-3.29.97-4.54,2.9-1.09,1.62-1.63,3.49-1.63,5.6,0,3.8,1.23,5.7,3.68,5.7,1.26,0,2.08-.12,2.48-.37v11.3c-.74.25-1.46.41-2.14.47-.69.06-1.34.09-1.97.09-4.23,0-7.37-1.59-9.43-4.76-2-2.93-3-6.66-3-11.21,0-5.73,1.66-10.49,4.97-14.29,3.31-3.8,7.6-5.7,12.85-5.7,4.4,0,7.74,1.9,10.03,5.7,1.94,3.24,2.91,7.38,2.91,12.42,0,4.55,1.17,6.82,3.51,6.82,1.49,0,2.66-.87,3.51-2.62.63-1.5.94-3.08.94-4.76s-.4-3.13-1.2-4.53c-.8-1.4-1.89-2.1-3.26-2.1-.91,0-1.71.53-2.4,1.59v-11.96c.91-.12,1.76-.23,2.53-.33.77-.09,1.47-.14,2.1-.14,3.6,0,6.57,2.05,8.91,6.17,2.11,3.61,3.17,7.47,3.17,11.58ZM1618.2,712.5c0,2.8-.84,5.12-2.53,6.96-1.69,1.84-3.81,2.76-6.38,2.76-1.2,0-2.34-.25-3.43-.75-1.09-.5-2.01-1.2-2.79-2.1-.77-.9-1.39-1.95-1.84-3.13-.46-1.18-.69-2.43-.69-3.74s.23-2.52.69-3.64c.46-1.12,1.08-2.1,1.88-2.94.8-.84,1.71-1.49,2.74-1.96,1.03-.47,2.14-.7,3.34-.7s2.36.23,3.47.7c1.11.47,2.07,1.11,2.87,1.92.8.81,1.44,1.79,1.93,2.94.49,1.15.73,2.38.73,3.69Z" fill="#003d31"/>
      <path d="M1684.29,746.03c0,4.17-1.2,7.66-3.6,10.46-2.34,2.74-5.43,4.11-9.25,4.11-.74,0-1.4-.01-1.97-.05-.57-.03-1.09-.11-1.54-.23v-11.86c.4.37,1.08.56,2.06.56.8,0,1.57-.28,2.31-.84.74-.56,1.11-1.28,1.11-2.15,0-1.56-.72-2.46-2.14-2.71-.06-.06-1.31-.09-3.77-.09-.06,5.04-1.63,9.25-4.71,12.61-2.91,3.18-6.74,4.76-11.48,4.76s-8.43-1.12-11.4-3.36c-3.54-2.74-5.31-6.45-5.31-11.12,0-2.86.69-5.46,2.06-7.8s3.26-3.94,5.66-4.81v-7.38c0-3.49,1.31-6.29,3.94-8.41,2.34-1.93,5.17-2.9,8.48-2.9,3.54,0,6.51,1.12,8.91,3.36,2.46,2.24,3.68,5.26,3.68,9.06v5.04h5.4c3.2,0,5.91,1.4,8.14,4.2,2.28,2.74,3.43,5.92,3.43,9.53ZM1656.18,743.23h-7.97c-1.43,0-2.14.72-2.14,2.15,0,1.18.47,2.23,1.41,3.13.94.9,1.96,1.35,3.04,1.35,1.54,0,2.88-.5,4.03-1.49,1.14-1,1.71-2.34,1.71-4.02,0-.5-.03-.87-.09-1.12ZM1663.38,703.53c0,2.68-.84,4.92-2.53,6.73-1.69,1.81-3.76,2.71-6.21,2.71s-4.48-.87-6.08-2.62c-1.6-1.74-2.4-3.95-2.4-6.63s.77-5.09,2.31-6.87c1.54-1.77,3.6-2.66,6.17-2.66s4.67.86,6.3,2.57c1.63,1.71,2.44,3.97,2.44,6.77ZM1652.93,732.3h3.26v-4.58c0-.81-.57-1.21-1.71-1.21-1.03,0-1.54.5-1.54,1.5v4.3Z" fill="#003d31"/>
      <path d="M1755.53,741.18c0,5.79-1.29,10.55-3.86,14.29-2.8,4.05-6.8,6.07-12,6.07-4.28,0-7.74-.96-10.37-2.9-3.08-2.3-4.63-5.67-4.63-10.09,0-1.18.2-2.68.6-4.48.4-1.81.6-3.3.6-4.48,0-2.05-.83-3.08-2.49-3.08-1.08,0-1.94.59-2.57,1.77-.63,1.18-.94,2.4-.94,3.64v18.68h-9.6v-18.87c0-1.8-.68-3.27-2.06-4.39s-2.91-1.68-4.63-1.68-3.26.87-4.63,2.62c-1.37,1.68-2.06,3.46-2.06,5.32s.54,3.4,1.63,4.58c1.08,1.18,2.49,1.78,4.2,1.78.74,0,1.48-.16,2.23-.47v10.46c-1.54.68-3.23,1.03-5.06,1.03-2.06,0-3.93-.39-5.61-1.17-1.69-.78-3.1-1.85-4.24-3.22-1.14-1.37-2.03-3.02-2.66-4.95-.63-1.93-.94-4.02-.94-6.26,0-5.54,1.63-10.37,4.88-14.48s7.4-6.17,12.42-6.17c2.8,0,4.94.28,6.43.84,1.31.44,3.17,1.71,5.57,3.83,2.4-3.18,5.63-4.76,9.68-4.76,3.2,0,5.77,1.34,7.71,4.02,2.06,2.74,3.08,5.82,3.08,9.25,0,.37-.04.89-.13,1.54-.09.65-.2,1.34-.34,2.05-.14.72-.26,1.4-.34,2.06-.09.65-.13,1.17-.13,1.54,0,3.43,1.6,5.14,4.8,5.14,1.77,0,3.17-.84,4.2-2.52.86-1.37,1.29-3.11,1.29-5.23,0-1.93-.49-3.63-1.46-5.09-.97-1.46-2.31-2.2-4.03-2.2-.63,0-1.26.12-1.89.37v-10.83c1.2-.56,2.46-.84,3.77-.84,3.88,0,7.17,1.84,9.85,5.51,2.46,3.43,3.68,7.35,3.68,11.77ZM1724.25,714.74c0,2.68-.83,4.94-2.49,6.77-1.66,1.84-3.71,2.76-6.17,2.76-1.2,0-2.34-.23-3.43-.7-1.09-.47-2.03-1.12-2.83-1.96-.8-.84-1.44-1.82-1.93-2.94-.49-1.12-.73-2.34-.73-3.64s.23-2.55.69-3.74c.46-1.18,1.07-2.23,1.84-3.13.77-.9,1.68-1.6,2.74-2.1,1.06-.5,2.19-.75,3.38-.75s2.34.25,3.43.75c1.08.5,2.03,1.17,2.83,2.01.8.84,1.44,1.84,1.93,2.99.48,1.15.73,2.38.73,3.69Z" fill="#003d31"/>
    </g>
    <g>
      <path d="M1198.17,673.37v-14.75h5.08v3.59c2.43,4.42,5.61,6.63,9.54,6.63,2,0,3.7-.61,5.08-1.84,1.38-1.23,2.07-2.83,2.07-4.82s-.56-3.32-1.69-4.16c-1.13-.85-3.26-1.69-6.39-2.53-3.64-.97-6.33-1.89-8.08-2.76-1.75-.87-3.15-2.1-4.19-3.71-1.04-1.61-1.56-3.51-1.56-5.71,0-3.41,1.13-6.13,3.4-8.17,2.27-2.04,5.11-3.05,8.53-3.05,3.25,0,6.26,1.05,9.04,3.16v-2.72h4.96v12.33h-4.96v-2.83c-2.08-3.14-4.95-4.7-8.61-4.7-2.22,0-3.92.51-5.11,1.53-1.19,1.02-1.78,2.25-1.78,3.67,0,1.09.3,2.05.9,2.88.6.83,1.37,1.44,2.3,1.83.93.39,2.77.93,5.52,1.63,3.58.93,6.18,1.8,7.79,2.61,1.61.81,3,2.16,4.17,4.05,1.17,1.89,1.75,4.06,1.75,6.52,0,3.47-1.22,6.33-3.66,8.59-2.44,2.26-5.46,3.39-9.06,3.39s-7.02-1.33-9.98-4v3.36h-5.08Z" fill="#003d31"/>
      <path d="M1234.4,668.43v-18.41h-5.69v-4.94h10.12v6.37c.62-1.66,1.49-3.03,2.6-4.12,1.11-1.09,2.28-1.81,3.52-2.16,1.23-.35,2.92-.53,5.06-.53h1.46v5.61h-1.11c-2.82,0-4.93.28-6.32.85-1.39.57-2.42,1.59-3.09,3.08-.67,1.49-1.01,4.16-1.01,8.02v6.22h6.16v4.94h-17.39v-4.94h5.69Z" fill="#003d31"/>
      <path d="M1258.76,668.43v-18.41h-4.38v-4.94h9.92v23.34h4.38v4.94h-14.3v-4.94h4.38ZM1257.97,635.47c0-.9.32-1.67.95-2.34.63-.66,1.43-.99,2.41-.99.91,0,1.7.32,2.36.96.66.64.99,1.43.99,2.37s-.33,1.73-.99,2.38c-.66.65-1.45.98-2.36.98s-1.73-.33-2.38-.99c-.65-.66-.98-1.45-.98-2.37Z" fill="#003d31"/>
      <path d="M1282.71,685.43v-5.7c1.52.39,2.98.58,4.38.58,1.75,0,2.91-.48,3.49-1.45.57-.96.86-2.9.86-5.8v-35.26h-5.19v-5.08h16.51v5.08h-5.19v35.56c0,3.06-.23,5.38-.69,6.97s-1.56,2.95-3.3,4.08c-1.74,1.13-3.81,1.69-6.2,1.69-1.65,0-3.21-.22-4.67-.67Z" fill="#003d31"/>
      <path d="M1332.92,668.43v4.94h-9.69v-3.45c-2.68,2.61-5.68,3.91-8.99,3.91-2.57,0-4.8-.84-6.7-2.51-1.9-1.67-2.84-3.82-2.84-6.43s1.01-4.81,3.02-6.54c2.01-1.73,4.44-2.6,7.28-2.6,2.65,0,5.2.8,7.67,2.4v-2.8c0-1.44-.14-2.55-.41-3.33-.27-.78-.91-1.48-1.91-2.1-1-.62-2.31-.94-3.92-.94-2.78,0-4.79,1.11-6.04,3.33l-5.31-1.4c2.35-4.4,6.42-6.6,12.2-6.6,2.12,0,3.95.29,5.5.86,1.55.57,2.7,1.31,3.46,2.22.76.91,1.27,1.88,1.53,2.94s.39,2.73.39,5.02v13.09h4.75ZM1322.67,662.85c-2.39-1.87-4.81-2.8-7.27-2.8-1.54,0-2.82.45-3.85,1.34-1.03.9-1.55,2.06-1.55,3.48,0,1.32.45,2.43,1.36,3.33.91.9,2.13,1.34,3.69,1.34,2.68,0,5.22-1.13,7.62-3.39v-3.3Z" fill="#003d31"/>
      <path d="M1340.18,668.43v-18.41h-4.38v-4.94h9.92v23.34h4.38v4.94h-14.3v-4.94h4.38ZM1339.4,635.47c0-.9.32-1.67.95-2.34.63-.66,1.43-.99,2.41-.99.91,0,1.7.32,2.36.96.66.64.99,1.43.99,2.37s-.33,1.73-.99,2.38c-.66.65-1.45.98-2.36.98s-1.73-.33-2.38-.99c-.65-.66-.98-1.45-.98-2.37Z" fill="#003d31"/>
      <path d="M1355.38,681.11v-31.09h-4.76v-4.94h10.3v4.44c2.76-3.25,6.11-4.88,10.04-4.88s7.25,1.36,9.85,4.09c2.6,2.73,3.9,6.27,3.9,10.63,0,4.58-1.41,8.19-4.23,10.84-2.82,2.65-6.03,3.97-9.63,3.97s-7.04-1.44-9.92-4.32v11.25h5.49v4.94h-16.19v-4.94h5.17ZM1360.84,659.63c0,1.56.32,3.05.96,4.47.64,1.42,1.66,2.61,3.06,3.58,1.4.96,3.04,1.45,4.93,1.45,2.64,0,4.83-.89,6.55-2.66,1.72-1.77,2.58-4.21,2.58-7.3s-.9-5.38-2.7-7.07c-1.8-1.69-3.85-2.54-6.14-2.54-2.45,0-4.61.92-6.46,2.76-1.86,1.84-2.79,4.28-2.79,7.32Z" fill="#003d31"/>
      <path d="M1392.71,668.43v-18.41h-5.69v-4.94h10.12v6.37c.62-1.66,1.49-3.03,2.6-4.12s2.28-1.81,3.52-2.16,2.92-.53,5.06-.53h1.46v5.61h-1.11c-2.82,0-4.93.28-6.32.85-1.39.57-2.42,1.59-3.09,3.08-.67,1.49-1.01,4.16-1.01,8.02v6.22h6.16v4.94h-17.39v-4.94h5.69Z" fill="#003d31"/>
      <path d="M1417.06,668.43v-18.41h-4.38v-4.94h9.92v23.34h4.38v4.94h-14.3v-4.94h4.38ZM1416.28,635.47c0-.9.32-1.67.95-2.34.63-.66,1.43-.99,2.41-.99.91,0,1.7.32,2.36.96.66.64.99,1.43.99,2.37s-.33,1.73-.99,2.38c-.66.65-1.45.98-2.36.98s-1.73-.33-2.38-.99c-.65-.66-.98-1.45-.98-2.37Z" fill="#003d31"/>
      <path d="M1440.98,672.87l-9.28-22.85h-4.7v-4.94h13.98v4.94h-3.38l6.1,15.66,5.98-15.66h-3.73v-4.94h13.68v4.94h-4.2l-13.98,36.02h-9.37v-4.85h5.51l3.38-8.33Z" fill="#003d31"/>
      <path d="M1490.7,668.43v4.94h-9.69v-3.45c-2.68,2.61-5.68,3.91-8.99,3.91-2.57,0-4.8-.84-6.7-2.51-1.9-1.67-2.84-3.82-2.84-6.43s1.01-4.81,3.02-6.54c2.01-1.73,4.44-2.6,7.28-2.6,2.65,0,5.2.8,7.67,2.4v-2.8c0-1.44-.14-2.55-.41-3.33-.27-.78-.91-1.48-1.91-2.1-1-.62-2.31-.94-3.92-.94-2.78,0-4.79,1.11-6.04,3.33l-5.31-1.4c2.35-4.4,6.42-6.6,12.2-6.6,2.12,0,3.95.29,5.5.86,1.55.57,2.7,1.31,3.46,2.22.76.91,1.27,1.88,1.53,2.94s.39,2.73.39,5.02v13.09h4.75ZM1480.46,662.85c-2.39-1.87-4.81-2.8-7.27-2.8-1.54,0-2.82.45-3.85,1.34-1.03.9-1.55,2.06-1.55,3.48,0,1.32.45,2.43,1.36,3.33.91.9,2.13,1.34,3.69,1.34,2.68,0,5.22-1.13,7.62-3.39v-3.3Z" fill="#003d31"/>
      <path d="M1508.47,673.37v-14.75h5.08v3.59c2.43,4.42,5.61,6.63,9.54,6.63,2,0,3.7-.61,5.08-1.84s2.07-2.83,2.07-4.82-.56-3.32-1.69-4.16c-1.13-.85-3.26-1.69-6.39-2.53-3.64-.97-6.33-1.89-8.08-2.76-1.75-.87-3.15-2.1-4.19-3.71-1.04-1.61-1.56-3.51-1.56-5.71,0-3.41,1.13-6.13,3.4-8.17,2.27-2.04,5.11-3.05,8.53-3.05,3.25,0,6.26,1.05,9.04,3.16v-2.72h4.96v12.33h-4.96v-2.83c-2.08-3.14-4.95-4.7-8.61-4.7-2.22,0-3.92.51-5.11,1.53s-1.78,2.25-1.78,3.67c0,1.09.3,2.05.9,2.88.6.83,1.37,1.44,2.3,1.83.93.39,2.77.93,5.52,1.63,3.58.93,6.18,1.8,7.79,2.61,1.61.81,3,2.16,4.17,4.05,1.17,1.89,1.75,4.06,1.75,6.52,0,3.47-1.22,6.33-3.66,8.59-2.44,2.26-5.46,3.39-9.06,3.39s-7.02-1.33-9.98-4v3.36h-5.08Z" fill="#003d31"/>
      <path d="M1543.9,668.43v-18.41h-4.38v-4.94h9.92v23.34h4.38v4.94h-14.3v-4.94h4.38ZM1543.11,635.47c0-.9.32-1.67.95-2.34.63-.66,1.43-.99,2.41-.99.91,0,1.7.32,2.36.96.66.64.99,1.43.99,2.37s-.33,1.73-.99,2.38c-.66.65-1.45.98-2.36.98s-1.73-.33-2.38-.99c-.65-.66-.98-1.45-.98-2.37Z" fill="#003d31"/>
      <path d="M1561.53,668.43v-30.76h-5.02v-4.94h10.56v35.7h4.32v4.94h-14.88v-4.94h5.02Z" fill="#003d31"/>
      <path d="M1579.4,668.43v-30.76h-5.08v-4.94h10.62v25.39l10.56-8.44h-4.7v-4.59h15.61v4.59h-4.32l-10.59,8.82,9.95,9.93h4.96v4.94h-7.27l-14.21-14.23v9.29h4.87v4.94h-15.49v-4.94h5.08Z" fill="#003d31"/>
      <path d="M1609.48,673.37v-9.7h4.96v.94c.17,1.32.89,2.42,2.14,3.27,1.25.86,2.74,1.29,4.45,1.29s3.22-.31,4.29-.94c1.07-.62,1.6-1.49,1.6-2.6s-.44-1.86-1.33-2.37c-.89-.51-2.64-.97-5.27-1.4-3.89-.66-6.67-1.72-8.33-3.19-1.66-1.47-2.49-3.38-2.49-5.72s.9-4.33,2.71-5.92c1.81-1.59,4.19-2.38,7.15-2.38,2.67,0,4.96.55,6.89,1.65v-1.21h4.93v9.38h-4.93v-1.72c-1.5-2.32-3.68-3.48-6.54-3.48-1.46,0-2.66.32-3.6.95-.94.63-1.42,1.48-1.42,2.53s.43,1.81,1.3,2.21c.87.4,2.73.82,5.59,1.27,2.74.43,4.81.93,6.21,1.5s2.56,1.53,3.49,2.86c.92,1.33,1.39,2.89,1.39,4.66,0,2.63-1.01,4.72-3.02,6.27-2.01,1.55-4.62,2.32-7.83,2.32-3.02,0-5.48-.69-7.38-2.06v1.59h-4.96Z" fill="#003d31"/>
    </g>
    <g>
      <path d="M1158.37,816.26v-10.5h5.06v27.91h-5.06v-12.71h-11.52v12.71h-5.08v-27.91h5.08v10.5h11.52Z" fill="#46121f"/>
      <path d="M1170.84,833.32c-.91-.5-1.62-1.22-2.11-2.19s-.74-2.12-.74-3.46c0-1.25.25-2.29.74-3.14s1.25-1.54,2.29-2.08,2.38-.96,4.04-1.25c1.16-.2,2.04-.43,2.65-.67.6-.24,1.01-.52,1.22-.82s.32-.69.32-1.16c0-.67-.22-1.19-.65-1.55-.43-.36-1.15-.54-2.16-.54-1.08,0-2.1.26-3.08.78-.97.52-1.82,1.21-2.53,2.06h-.35l-2.04-3.34c.98-1.18,2.19-2.11,3.6-2.77,1.42-.66,2.96-.99,4.64-.99,2.57,0,4.42.59,5.57,1.78,1.15,1.18,1.72,2.86,1.72,5.04v9.14c0,.94.38,1.41,1.14,1.41.29,0,.58-.06.86-.17l.25.08.35,3.68c-.27.19-.64.35-1.12.47-.48.12-1.01.18-1.58.18-1.16,0-2.07-.24-2.72-.72-.65-.48-1.12-1.24-1.4-2.27l-.37-.04c-.95,2.19-2.72,3.28-5.31,3.28-1.24,0-2.32-.25-3.23-.74ZM1178.33,828.88c.67-.82,1.01-1.96,1.01-3.43v-2.14l-.33-.08c-.29.25-.68.47-1.15.64-.47.17-1.16.34-2.05.51-1.05.19-1.81.52-2.28.98s-.69,1.12-.69,1.98c0,.9.25,1.59.74,2.06s1.18.71,2.06.71c1.12,0,2.02-.41,2.7-1.23Z" fill="#46121f"/>
      <path d="M1189.62,833.67v-21.05h4.68v3.09l.37.1c1.21-2.39,3.16-3.59,5.87-3.59,2.24,0,3.88.66,4.93,1.99,1.05,1.32,1.57,3.25,1.57,5.78v13.69h-4.87v-13.04c0-1.4-.26-2.41-.77-3.03s-1.34-.93-2.48-.93c-1.4,0-2.48.49-3.26,1.47-.78.98-1.17,2.52-1.17,4.62v10.9h-4.87Z" fill="#46121f"/>
      <path d="M1214.85,832.85c-1.18-.81-2.1-2.03-2.77-3.67-.67-1.63-1-3.65-1-6.04s.34-4.43,1.03-6.06c.69-1.64,1.63-2.86,2.85-3.67,1.21-.81,2.62-1.21,4.21-1.21,1.21,0,2.25.23,3.14.68.88.45,1.63,1.16,2.24,2.11l.37-.1v-10.75h4.87v29.51h-4.87v-2.73l-.37-.08c-.54.99-1.28,1.77-2.22,2.35-.94.57-2.07.86-3.41.86-1.54,0-2.89-.4-4.07-1.21ZM1223.76,827.99c.8-1.06,1.2-2.68,1.2-4.84s-.4-3.78-1.2-4.85c-.8-1.07-1.88-1.6-3.25-1.6s-2.52.52-3.28,1.56c-.76,1.04-1.13,2.67-1.13,4.9s.38,3.84,1.13,4.88c.76,1.04,1.85,1.56,3.28,1.56s2.46-.53,3.25-1.59Z" fill="#46121f"/>
      <path d="M1236.25,832.53c-.92-1.02-1.38-2.58-1.38-4.67v-23.71h4.87v23.5c0,1.29.49,1.93,1.48,1.93.28,0,.58-.05.9-.15l.25.08.44,4.07c-.27.15-.63.27-1.07.36-.45.09-.94.13-1.48.13-1.75,0-3.08-.51-4-1.54Z" fill="#46121f"/>
      <path d="M1249.12,832.8c-1.44-.85-2.55-2.09-3.34-3.72-.79-1.63-1.19-3.61-1.19-5.93s.4-4.29,1.19-5.94,1.9-2.89,3.34-3.73c1.44-.85,3.1-1.27,5-1.27s3.57.42,5,1.27c1.44.85,2.55,2.09,3.35,3.73.8,1.64,1.2,3.62,1.2,5.94s-.4,4.29-1.2,5.93c-.8,1.64-1.91,2.88-3.35,3.72-1.44.85-3.1,1.27-5,1.27s-3.57-.42-5-1.27ZM1258.64,823.15c0-2.23-.39-3.86-1.16-4.9-.77-1.04-1.89-1.56-3.36-1.56-3.01,0-4.52,2.15-4.52,6.45s1.51,6.43,4.52,6.43,4.52-2.14,4.52-6.43Z" fill="#46121f"/>
      <path d="M1271.36,832.8c-1.44-.85-2.55-2.09-3.34-3.72-.79-1.63-1.19-3.61-1.19-5.93s.4-4.29,1.19-5.94,1.9-2.89,3.34-3.73c1.44-.85,3.1-1.27,5-1.27s3.57.42,5,1.27c1.44.85,2.55,2.09,3.35,3.73s1.2,3.62,1.2,5.94-.4,4.29-1.2,5.93c-.8,1.64-1.91,2.88-3.35,3.72-1.44.85-3.1,1.27-5,1.27s-3.57-.42-5-1.27ZM1280.88,823.15c0-2.23-.39-3.86-1.16-4.9-.77-1.04-1.89-1.56-3.36-1.56-3.01,0-4.52,2.15-4.52,6.45s1.51,6.43,4.52,6.43,4.52-2.14,4.52-6.43Z" fill="#46121f"/>
      <path d="M1290.1,833.67v-21.05h4.68v2.83l.37.08c.63-1.13,1.37-1.97,2.22-2.5.85-.53,1.94-.8,3.26-.8,1.46,0,2.64.32,3.53.95.89.63,1.54,1.55,1.95,2.76h.37c.6-1.26,1.37-2.19,2.31-2.8s2.12-.91,3.53-.91c4.02,0,6.03,2.43,6.03,7.29v14.16h-4.87v-13.5c0-1.23-.22-2.12-.67-2.67s-1.16-.82-2.14-.82c-2.67,0-4.01,1.94-4.01,5.82v11.17h-4.87v-13.5c0-1.23-.23-2.12-.68-2.67s-1.17-.82-2.15-.82c-1.25,0-2.23.46-2.94,1.37s-1.05,2.36-1.05,4.34v11.28h-4.87Z" fill="#46121f"/>
      <path d="M1335.97,833.35c-1.39-.48-2.55-1.1-3.47-1.88s-1.63-1.63-2.13-2.56l2.8-3.7h.44c.77,1.25,1.75,2.24,2.94,2.98s2.58,1.11,4.18,1.11c1.36,0,2.38-.31,3.08-.94.69-.62,1.04-1.48,1.04-2.58,0-.66-.11-1.21-.33-1.66s-.59-.83-1.11-1.15-1.21-.59-2.09-.82l-3.31-.82c-2.31-.57-4.03-1.52-5.16-2.85-1.13-1.33-1.7-3.06-1.7-5.18,0-1.58.36-2.96,1.09-4.16s1.79-2.12,3.17-2.79c1.39-.66,3.05-.99,4.98-.99s3.68.28,5.09.85c1.41.57,2.61,1.43,3.58,2.61l-2.51,3.74h-.44c-.73-.83-1.56-1.45-2.5-1.86-.94-.41-2.01-.62-3.22-.62-1.4,0-2.46.27-3.18.8s-1.09,1.27-1.09,2.21c0,.88.25,1.58.76,2.1.51.52,1.39.93,2.65,1.22l3.38.76c2.5.57,4.31,1.54,5.43,2.91,1.12,1.37,1.69,3.15,1.69,5.35,0,1.74-.35,3.26-1.04,4.55-.69,1.29-1.73,2.29-3.13,3.01-1.4.71-3.11,1.07-5.13,1.07-1.78,0-3.37-.24-4.76-.72Z" fill="#46121f"/>
      <path d="M1354.25,809.22c-.55-.58-.83-1.33-.83-2.24s.28-1.64.83-2.22,1.27-.87,2.15-.87c.59,0,1.11.13,1.56.4.46.27.81.63,1.06,1.1.25.46.38,1,.38,1.59s-.13,1.13-.38,1.6c-.25.47-.61.84-1.06,1.11s-.98.4-1.56.4c-.88,0-1.59-.29-2.15-.87ZM1353.97,833.67v-21.05h4.87v21.05h-4.87Z" fill="#46121f"/>
      <path d="M1365.25,832.53c-.92-1.02-1.38-2.58-1.38-4.67v-23.71h4.87v23.5c0,1.29.49,1.93,1.48,1.93.28,0,.58-.05.9-.15l.25.08.44,4.07c-.27.15-.63.27-1.07.36-.45.09-.94.13-1.48.13-1.75,0-3.08-.51-4-1.54Z" fill="#46121f"/>
      <path d="M1374.9,833.67v-29.51h4.87v16.38h.47l5.61-7.92h4.94v.44l-6.59,9.24,7.33,10.9v.48h-5.13l-6.15-8.88h-.47v8.88h-4.87Z" fill="#46121f"/>
      <path d="M1406.69,833.35c-1.39-.48-2.55-1.1-3.47-1.88s-1.63-1.63-2.13-2.56l2.8-3.7h.44c.77,1.25,1.75,2.24,2.94,2.98s2.58,1.11,4.18,1.11c1.36,0,2.38-.31,3.08-.94.69-.62,1.04-1.48,1.04-2.58,0-.66-.11-1.21-.33-1.66s-.59-.83-1.11-1.15-1.21-.59-2.09-.82l-3.31-.82c-2.31-.57-4.03-1.52-5.16-2.85-1.13-1.33-1.7-3.06-1.7-5.18,0-1.58.36-2.96,1.09-4.16s1.79-2.12,3.17-2.79c1.39-.66,3.05-.99,4.98-.99s3.68.28,5.09.85c1.41.57,2.61,1.43,3.58,2.61l-2.51,3.74h-.44c-.73-.83-1.56-1.45-2.5-1.86-.94-.41-2.01-.62-3.22-.62-1.4,0-2.46.27-3.18.8s-1.09,1.27-1.09,2.21c0,.88.25,1.58.76,2.1.51.52,1.39.93,2.65,1.22l3.38.76c2.5.57,4.31,1.54,5.43,2.91,1.12,1.37,1.69,3.15,1.69,5.35,0,1.74-.35,3.26-1.04,4.55-.69,1.29-1.73,2.29-3.13,3.01-1.4.71-3.11,1.07-5.13,1.07-1.78,0-3.37-.24-4.76-.72Z" fill="#46121f"/>
      <path d="M1426.59,833.32c-.91-.5-1.62-1.22-2.11-2.19s-.74-2.12-.74-3.46c0-1.25.25-2.29.74-3.14s1.25-1.54,2.29-2.08c1.03-.54,2.38-.96,4.04-1.25,1.16-.2,2.04-.43,2.65-.67.6-.24,1.01-.52,1.22-.82s.32-.69.32-1.16c0-.67-.22-1.19-.65-1.55s-1.15-.54-2.16-.54c-1.08,0-2.1.26-3.08.78-.97.52-1.82,1.21-2.53,2.06h-.35l-2.04-3.34c.98-1.18,2.19-2.11,3.6-2.77,1.42-.66,2.96-.99,4.64-.99,2.57,0,4.42.59,5.57,1.78s1.72,2.86,1.72,5.04v9.14c0,.94.38,1.41,1.14,1.41.29,0,.58-.06.86-.17l.25.08.35,3.68c-.27.19-.64.35-1.12.47-.48.12-1.01.18-1.58.18-1.16,0-2.07-.24-2.72-.72s-1.12-1.24-1.4-2.27l-.37-.04c-.95,2.19-2.72,3.28-5.31,3.28-1.24,0-2.32-.25-3.23-.74ZM1434.07,828.88c.67-.82,1.01-1.96,1.01-3.43v-2.14l-.33-.08c-.29.25-.68.47-1.15.64s-1.16.34-2.05.51c-1.05.19-1.81.52-2.28.98s-.69,1.12-.69,1.98c0,.9.25,1.59.74,2.06s1.18.71,2.06.71c1.13,0,2.03-.41,2.7-1.23Z" fill="#46121f"/>
      <path d="M1445.36,833.67v-21.05h4.73v3.13l.37.08c.47-1.17,1.08-2.03,1.85-2.58.76-.55,1.69-.82,2.78-.82s1.94.2,2.51.61l-.83,4.56-.37.08c-.32-.14-.62-.24-.91-.31s-.65-.1-1.07-.1c-1.36,0-2.4.52-3.11,1.56-.71,1.04-1.07,2.7-1.07,4.99v9.85h-4.87Z" fill="#46121f"/>
      <path d="M1476.61,824.33h-12.46c.14,1.83.62,3.17,1.44,4,.82.83,1.94,1.25,3.36,1.25,1.11,0,2.02-.23,2.71-.68.69-.45,1.25-1.14,1.67-2.05h.37l3.24,2.25c-.63,1.48-1.59,2.67-2.87,3.59-1.28.92-2.98,1.37-5.12,1.37-2,0-3.74-.41-5.2-1.24s-2.58-2.06-3.38-3.69c-.79-1.64-1.19-3.63-1.19-5.98s.42-4.41,1.25-6.05,1.96-2.87,3.38-3.67c1.42-.81,3.01-1.21,4.78-1.21,2.74,0,4.84.79,6.3,2.37,1.46,1.58,2.19,3.89,2.19,6.95,0,1.11-.04,1.97-.11,2.58l-.37.23ZM1472.43,820.91c-.05-1.6-.39-2.77-1.03-3.5s-1.57-1.1-2.8-1.1c-2.46,0-3.91,1.53-4.34,4.6h8.17Z" fill="#46121f"/>
      <path d="M1497.62,824.33h-12.46c.14,1.83.62,3.17,1.44,4,.82.83,1.94,1.25,3.36,1.25,1.11,0,2.02-.23,2.71-.68.69-.45,1.25-1.14,1.67-2.05h.37l3.24,2.25c-.63,1.48-1.59,2.67-2.87,3.59-1.28.92-2.98,1.37-5.12,1.37-2,0-3.74-.41-5.2-1.24s-2.58-2.06-3.38-3.69c-.79-1.64-1.19-3.63-1.19-5.98s.42-4.41,1.25-6.05,1.96-2.87,3.38-3.67c1.42-.81,3.01-1.21,4.78-1.21,2.74,0,4.84.79,6.3,2.37,1.46,1.58,2.19,3.89,2.19,6.95,0,1.11-.04,1.97-.11,2.58l-.37.23ZM1493.44,820.91c-.05-1.6-.39-2.77-1.03-3.5s-1.57-1.1-2.8-1.1c-2.46,0-3.91,1.53-4.34,4.6h8.17Z" fill="#46121f"/>
      <path d="M1505.11,833.56c-1.1-.34-2.04-.8-2.82-1.39s-1.36-1.27-1.73-2.03l2.71-3.17h.37c.64.94,1.41,1.65,2.29,2.12s1.83.71,2.87.71c.95,0,1.66-.18,2.15-.55.48-.37.72-.9.72-1.58,0-.54-.17-.98-.52-1.35-.35-.36-.91-.65-1.68-.85l-2.57-.67c-1.92-.5-3.33-1.26-4.21-2.28-.88-1.02-1.33-2.33-1.33-3.9,0-1.31.31-2.45.92-3.42.62-.97,1.48-1.71,2.6-2.21,1.12-.51,2.42-.76,3.91-.76,1.75,0,3.19.27,4.34.82s2.04,1.28,2.69,2.2l-2.6,3.05h-.35c-.54-.66-1.15-1.15-1.82-1.45-.67-.31-1.43-.46-2.26-.46-1.92,0-2.88.65-2.88,1.95,0,.55.18.99.54,1.34.36.34.99.62,1.89.84l2.39.57c1.97.46,3.41,1.19,4.32,2.21s1.36,2.37,1.36,4.08c0,1.34-.31,2.51-.92,3.53-.61,1.02-1.49,1.8-2.64,2.36s-2.51.83-4.1.83c-1.32,0-2.54-.17-3.64-.51Z" fill="#46121f"/>
      <path d="M1531.68,833.04c-1.4-.69-2.47-1.67-3.23-2.95s-1.13-2.77-1.13-4.48c0-1.83.42-3.36,1.27-4.57.84-1.22,2.12-2.21,3.82-2.99l.04-.4c-.77-1.03-1.33-1.98-1.67-2.85-.34-.87-.51-1.83-.51-2.87,0-1.29.28-2.42.84-3.42.56-.99,1.38-1.77,2.45-2.32s2.35-.83,3.82-.83,2.61.25,3.61.76,1.77,1.21,2.29,2.12c.53.9.79,1.95.79,3.13,0,1.59-.44,2.97-1.31,4.14-.87,1.17-2.23,2.14-4.07,2.9l-.04.4,4.75,6.81c.28-.66.48-1.42.59-2.28s.17-1.83.17-2.91l-.02-.97h4.11c0,3.92-.71,7.09-2.13,9.51.29.25.55.43.76.54s.45.15.71.15.45-.01.6-.04.32-.07.51-.13l.26.08.62,3.84c-.22.17-.54.29-.95.38s-.87.13-1.37.13c-.86,0-1.61-.15-2.26-.46s-1.27-.78-1.85-1.41h-.37c-1.45,1.35-3.53,2.02-6.22,2.02-1.86,0-3.49-.34-4.89-1.03ZM1540.06,828.82l-5.71-7.9c-.68.48-1.18,1.05-1.5,1.71s-.48,1.43-.48,2.32.2,1.72.59,2.42.95,1.23,1.68,1.6c.73.38,1.58.56,2.55.56,1.12,0,2.09-.24,2.88-.71ZM1538.92,813.99c.49-.6.74-1.36.74-2.26,0-.79-.21-1.4-.63-1.82s-.99-.64-1.71-.64-1.31.23-1.75.69c-.44.46-.66,1.09-.66,1.89,0,.61.12,1.19.35,1.73s.66,1.28,1.28,2.21c1.09-.59,1.88-1.18,2.37-1.79Z" fill="#46121f"/>
      <path d="M1561.9,833.67v-27.91h10.32c2.66,0,4.67.67,6.02,2,1.35,1.33,2.03,3.17,2.03,5.51,0,1.69-.4,3.08-1.19,4.16-.79,1.08-1.97,1.91-3.54,2.48v.4c.81.38,1.46.95,1.96,1.7s.97,1.86,1.42,3.34l2.57,8.32h-5.22l-2.51-8.34c-.26-.84-.55-1.49-.87-1.96-.32-.46-.73-.8-1.23-1.01s-1.15-.31-1.94-.31h-2.73v11.62h-5.08ZM1571.6,817.67c2.46,0,3.69-1.25,3.69-3.74s-1.23-3.8-3.69-3.8h-4.62v7.54h4.62Z" fill="#46121f"/>
      <path d="M1586.71,833.32c-.91-.5-1.62-1.22-2.11-2.19s-.74-2.12-.74-3.46c0-1.25.25-2.29.74-3.14s1.25-1.54,2.29-2.08c1.03-.54,2.38-.96,4.04-1.25,1.16-.2,2.04-.43,2.65-.67.6-.24,1.01-.52,1.22-.82s.32-.69.32-1.16c0-.67-.22-1.19-.65-1.55s-1.15-.54-2.16-.54c-1.08,0-2.1.26-3.08.78-.97.52-1.82,1.21-2.53,2.06h-.35l-2.04-3.34c.98-1.18,2.19-2.11,3.6-2.77,1.42-.66,2.96-.99,4.64-.99,2.57,0,4.42.59,5.57,1.78s1.72,2.86,1.72,5.04v9.14c0,.94.38,1.41,1.14,1.41.29,0,.58-.06.86-.17l.25.08.35,3.68c-.27.19-.64.35-1.12.47-.48.12-1.01.18-1.58.18-1.16,0-2.07-.24-2.72-.72s-1.12-1.24-1.4-2.27l-.37-.04c-.95,2.19-2.72,3.28-5.31,3.28-1.24,0-2.32-.25-3.23-.74ZM1594.19,828.88c.67-.82,1.01-1.96,1.01-3.43v-2.14l-.33-.08c-.29.25-.68.47-1.15.64s-1.16.34-2.05.51c-1.05.19-1.81.52-2.28.98s-.69,1.12-.69,1.98c0,.9.25,1.59.74,2.06s1.18.71,2.06.71c1.13,0,2.03-.41,2.7-1.23Z" fill="#46121f"/>
      <path d="M1612.88,833.67h-5.1l-4.61-21.05h4.52l2.85,14.24h.37l3.69-14.24h4.22l3.81,14.24h.37l2.74-14.24h4.39l-4.55,21.05h-5.12l-3.67-14.34h-.37l-3.55,14.34Z" fill="#46121f"/>
      <path d="M1645.96,833.35c-1.39-.48-2.55-1.1-3.47-1.88s-1.63-1.63-2.13-2.56l2.8-3.7h.44c.77,1.25,1.75,2.24,2.94,2.98s2.58,1.11,4.18,1.11c1.36,0,2.38-.31,3.08-.94.69-.62,1.04-1.48,1.04-2.58,0-.66-.11-1.21-.33-1.66s-.59-.83-1.11-1.15-1.21-.59-2.09-.82l-3.31-.82c-2.31-.57-4.03-1.52-5.16-2.85-1.13-1.33-1.7-3.06-1.7-5.18,0-1.58.36-2.96,1.09-4.16s1.79-2.12,3.17-2.79c1.39-.66,3.05-.99,4.98-.99s3.68.28,5.09.85c1.41.57,2.61,1.43,3.58,2.61l-2.51,3.74h-.44c-.73-.83-1.56-1.45-2.5-1.86-.94-.41-2.01-.62-3.22-.62-1.4,0-2.46.27-3.18.8s-1.09,1.27-1.09,2.21c0,.88.25,1.58.76,2.1.51.52,1.39.93,2.65,1.22l3.38.76c2.5.57,4.31,1.54,5.43,2.91,1.12,1.37,1.69,3.15,1.69,5.35,0,1.74-.35,3.26-1.04,4.55-.69,1.29-1.73,2.29-3.13,3.01-1.4.71-3.11,1.07-5.13,1.07-1.78,0-3.37-.24-4.76-.72Z" fill="#46121f"/>
      <path d="M1664.23,809.22c-.55-.58-.83-1.33-.83-2.24s.28-1.64.83-2.22,1.27-.87,2.15-.87c.59,0,1.11.13,1.56.4.46.27.81.63,1.06,1.1.25.46.38,1,.38,1.59s-.13,1.13-.38,1.6c-.25.47-.61.84-1.06,1.11s-.98.4-1.56.4c-.88,0-1.59-.29-2.15-.87ZM1663.95,833.67v-21.05h4.87v21.05h-4.87Z" fill="#46121f"/>
      <path d="M1675.23,832.53c-.92-1.02-1.38-2.58-1.38-4.67v-23.71h4.87v23.5c0,1.29.49,1.93,1.48,1.93.28,0,.58-.05.9-.15l.25.08.44,4.07c-.27.15-.63.27-1.07.36-.45.09-.94.13-1.48.13-1.75,0-3.08-.51-4-1.54Z" fill="#46121f"/>
      <path d="M1684.88,833.67v-29.51h4.87v16.38h.47l5.61-7.92h4.94v.44l-6.59,9.24,7.33,10.9v.48h-5.13l-6.15-8.88h-.47v8.88h-4.87Z" fill="#46121f"/>
    </g>
  </g>
</svg>
